<svg width="53" height="53" viewBox="0 0 53 53" fill="none" xmlns="http://www.w3.org/2000/svg">
<path d="M26.5 0C12.1344 0 0 12.1344 0 26.5C0 40.8657 12.1344 53 26.5 53C40.8657 53 53 40.8657 53 26.5C53 12.1344 40.8657 0 26.5 0ZM26.5 13.25C31.0766 13.25 34.45 16.6208 34.45 21.2C34.45 25.7792 31.0766 29.15 26.5 29.15C21.9261 29.15 18.55 25.7792 18.55 21.2C18.55 16.6208 21.9261 13.25 26.5 13.25ZM12.9691 39.1458C15.3462 35.6478 19.3106 33.3158 23.85 33.3158H29.15C33.6921 33.3158 37.6539 35.6478 40.0309 39.1458C36.6442 42.771 31.8398 45.05 26.5 45.05C21.1602 45.05 16.3558 42.771 12.9691 39.1458Z" fill="white"/>
</svg>
