<svg width="395" height="76" viewBox="0 0 395 76" fill="none" xmlns="http://www.w3.org/2000/svg">
<path d="M134.119 68.1215V47.04H141.793C144.146 47.04 145.954 47.4712 147.218 48.334C148.482 49.1964 149.114 50.4118 149.114 51.9797C149.114 53.1164 148.727 54.1113 147.953 54.9641C147.188 55.8168 146.209 56.4096 145.013 56.7428V56.8016C146.512 56.988 147.708 57.5416 148.6 58.4629C149.501 59.3842 149.952 60.5062 149.952 61.8293C149.952 63.7602 149.261 65.294 147.88 66.4307C146.498 67.5578 144.611 68.1215 142.22 68.1215H134.119ZM138.868 50.5389V55.5374H140.955C141.935 55.5374 142.705 55.3023 143.263 54.8316C143.832 54.3515 144.116 53.6948 144.116 52.8619C144.116 51.3133 142.96 50.5389 140.647 50.5389H138.868ZM138.868 59.0657V64.6226H141.44C142.538 64.6226 143.396 64.3677 144.013 63.8582C144.64 63.3484 144.954 62.6526 144.954 61.7707C144.954 60.9277 144.645 60.2664 144.028 59.786C143.42 59.3056 142.568 59.0657 141.47 59.0657H138.868ZM167.314 53.0676L161.199 69.3271C159.729 73.2374 157.514 75.1928 154.554 75.1928C153.427 75.1928 152.5 75.0653 151.775 74.8104V71.1058C152.393 71.4684 153.064 71.6498 153.789 71.6498C154.985 71.6498 155.818 71.0861 156.289 69.959L157.082 68.092L150.967 53.0676H156.112L158.92 62.2264C159.096 62.7947 159.234 63.4661 159.332 64.2402H159.39C159.479 63.6719 159.64 63.0105 159.875 62.2558L162.713 53.0676H167.314ZM177.958 68.1215V47.04H185.426C192.914 47.04 196.657 50.4656 196.657 57.3161C196.657 60.5995 195.633 63.2213 193.585 65.1813C191.546 67.1413 188.827 68.1215 185.426 68.1215H177.958ZM182.706 50.9065V64.2697H185.059C187.117 64.2697 188.729 63.6525 189.895 62.4174C191.071 61.1826 191.659 59.5016 191.659 57.375C191.659 55.3658 191.076 53.7878 189.91 52.6414C188.753 51.4849 187.126 50.9065 185.029 50.9065H182.706ZM217.68 68.1215H211.682L205.537 58.9627C205.419 58.7864 205.233 58.3994 204.978 57.8012H204.905V68.1215H200.156V47.04H204.905V57.0074H204.978C205.096 56.733 205.292 56.341 205.566 55.8315L211.388 47.04H217.048L209.697 57.0957L217.68 68.1215ZM231.778 68.1215H227.383V65.9604H227.324C226.315 67.6461 224.82 68.4891 222.84 68.4891C221.38 68.4891 220.228 68.0773 219.385 67.254C218.552 66.421 218.136 65.3134 218.136 63.9318C218.136 61.011 219.865 59.3253 223.325 58.8744L227.412 58.3304C227.412 56.6842 226.52 55.8609 224.737 55.8609C222.943 55.8609 221.238 56.3949 219.621 57.4633V53.9645C220.268 53.6313 221.149 53.3372 222.267 53.0823C223.394 52.8274 224.418 52.6999 225.339 52.6999C229.632 52.6999 231.778 54.8416 231.778 59.1243V68.1215ZM227.412 62.0059V60.9916L224.678 61.3442C223.168 61.5402 222.414 62.2214 222.414 63.3879C222.414 63.9171 222.595 64.353 222.958 64.6962C223.33 65.0294 223.83 65.196 224.457 65.196C225.329 65.196 226.04 64.8969 226.589 64.2991C227.138 63.6916 227.412 62.9272 227.412 62.0059ZM244.553 67.9452C243.867 68.3078 242.834 68.4891 241.452 68.4891C238.178 68.4891 236.541 66.7887 236.541 63.3879V56.4929H234.101V53.0676H236.541V49.8186L241.172 48.4956V53.0676H244.553V56.4929H241.172V62.5793C241.172 64.1472 241.795 64.9314 243.039 64.9314C243.529 64.9314 244.034 64.7892 244.553 64.5049V67.9452ZM246.2 67.7244V63.9609C246.964 64.4216 247.724 64.7648 248.479 64.9903C249.243 65.2154 249.964 65.3281 250.64 65.3281C251.463 65.3281 252.11 65.2154 252.58 64.9903C253.061 64.7648 253.301 64.4216 253.301 63.9609C253.301 63.6672 253.193 63.422 252.977 63.2259C252.762 63.0299 252.482 62.8586 252.139 62.7114C251.806 62.5646 251.438 62.4321 251.037 62.3147C250.635 62.1969 250.248 62.0648 249.875 61.9176C249.277 61.6921 248.748 61.4519 248.288 61.1974C247.837 60.9327 247.455 60.629 247.141 60.2858C246.837 59.9429 246.602 59.5458 246.435 59.0952C246.278 58.6442 246.2 58.11 246.2 57.4928C246.2 56.6498 246.381 55.9245 246.744 55.317C247.116 54.7091 247.606 54.2144 248.214 53.832C248.831 53.4399 249.532 53.1559 250.316 52.9793C251.11 52.7933 251.934 52.6999 252.786 52.6999C253.453 52.6999 254.129 52.7538 254.815 52.8619C255.501 52.9599 256.177 53.1067 256.843 53.3028V56.8899C256.256 56.5467 255.623 56.2921 254.947 56.1255C254.281 55.9489 253.624 55.8609 252.977 55.8609C252.674 55.8609 252.384 55.8904 252.11 55.9489C251.845 55.9981 251.61 56.0764 251.404 56.1841C251.199 56.2821 251.037 56.4146 250.919 56.5812C250.802 56.7381 250.743 56.9194 250.743 57.1251C250.743 57.3994 250.831 57.6346 251.007 57.8306C251.184 58.0267 251.414 58.1983 251.698 58.3451C251.982 58.4826 252.296 58.6098 252.639 58.7275C252.992 58.8352 253.34 58.948 253.683 59.0657C254.3 59.2812 254.859 59.5163 255.359 59.7713C255.859 60.0262 256.285 60.3249 256.638 60.6681C257 61.011 257.275 61.4128 257.461 61.8734C257.657 62.3341 257.755 62.883 257.755 63.52C257.755 64.4118 257.559 65.1763 257.167 65.8135C256.785 66.4408 256.27 66.9553 255.623 67.3571C254.986 67.7491 254.247 68.0331 253.403 68.2098C252.571 68.3958 251.703 68.4891 250.802 68.4891C249.145 68.4891 247.611 68.2342 246.2 67.7244ZM273.97 61.9176H264.15C264.307 64.1031 265.684 65.196 268.281 65.196C269.937 65.196 271.393 64.8039 272.647 64.0198V67.3718C271.256 68.1165 269.447 68.4891 267.223 68.4891C264.792 68.4891 262.906 67.8177 261.563 66.4749C260.22 65.1224 259.548 63.2407 259.548 60.8297C259.548 58.3304 260.274 56.3507 261.724 54.8905C263.175 53.4302 264.959 52.6999 267.075 52.6999C269.271 52.6999 270.966 53.352 272.162 54.6553C273.368 55.959 273.97 57.7279 273.97 59.9623V61.9176ZM269.663 59.0657C269.663 56.9093 268.791 55.8315 267.046 55.8315C266.301 55.8315 265.654 56.1403 265.106 56.7575C264.566 57.375 264.238 58.1444 264.12 59.0657H269.663ZM291.068 53.0676L285.467 68.1215H280.174L274.838 53.0676H279.807L282.423 62.3438C282.717 63.3926 282.889 64.2844 282.938 65.0197H282.997C283.065 64.3235 283.247 63.4611 283.541 62.4321L286.216 53.0676H291.068ZM295.404 50.6861C294.62 50.6861 293.978 50.4556 293.479 49.9949C292.979 49.5246 292.729 48.9512 292.729 48.2751C292.729 47.5793 292.979 47.0109 293.479 46.5697C293.978 46.1288 294.62 45.9083 295.404 45.9083C296.198 45.9083 296.84 46.1288 297.33 46.5697C297.83 47.0109 298.08 47.5793 298.08 48.2751C298.08 48.9806 297.83 49.559 297.33 50.0097C296.84 50.4606 296.198 50.6861 295.404 50.6861ZM297.698 68.1215H293.052V53.0676H297.698V68.1215ZM313.016 67.5775C311.968 68.185 310.453 68.4891 308.474 68.4891C306.161 68.4891 304.289 67.7883 302.858 66.3866C301.427 64.9852 300.711 63.1771 300.711 60.9622C300.711 58.404 301.476 56.3902 303.005 54.9199C304.544 53.4399 306.597 52.6999 309.165 52.6999C310.939 52.6999 312.222 52.9351 313.016 53.4058V57.3456C312.046 56.6203 310.963 56.2577 309.768 56.2577C308.434 56.2577 307.376 56.6497 306.592 57.4339C305.818 58.208 305.431 59.2812 305.431 60.6534C305.431 61.9862 305.803 63.0349 306.548 63.7993C307.293 64.554 308.317 64.9314 309.62 64.9314C310.777 64.9314 311.909 64.5688 313.016 63.8435V67.5775ZM330.525 68.1215H325.895V59.5655C325.895 57.3603 325.091 56.2577 323.484 56.2577C322.66 56.2577 321.994 56.5665 321.484 57.184C320.975 57.8012 320.72 58.5854 320.72 59.5361V68.1215H316.074V45.8347H320.72V55.3023H320.779C321.915 53.5674 323.459 52.6999 325.409 52.6999C328.82 52.6999 330.525 54.7583 330.525 58.8744V68.1215Z" fill="white"/>
<path d="M0.137211 33.4105V26.0927C1.46358 27.2057 2.90427 28.0443 4.4593 28.6084C6.01437 29.157 7.58466 29.4316 9.1702 29.4316C10.1002 29.4316 10.9082 29.3477 11.5942 29.1801C12.2955 29.0121 12.8749 28.7836 13.3322 28.4939C13.8048 28.1892 14.1555 27.8383 14.3842 27.4418C14.6128 27.0304 14.7272 26.5881 14.7272 26.1158C14.7272 25.4755 14.5442 24.9038 14.1784 24.4006C13.8124 23.8975 13.3093 23.4325 12.6691 23.0057C12.044 22.5788 11.2969 22.167 10.4279 21.7706C9.55895 21.3741 8.62133 20.9704 7.61513 20.5586C5.0539 19.4914 3.14059 18.1881 1.87519 16.6482C0.625067 15.1084 0 13.2484 0 11.0683C0 9.36082 0.343024 7.89725 1.02907 6.67755C1.71512 5.4428 2.64511 4.42884 3.81901 3.63601C5.00817 2.8435 6.38025 2.26411 7.93531 1.89813C9.49034 1.5171 11.1369 1.32641 12.8749 1.32641C14.5824 1.32641 16.0917 1.43312 17.4028 1.64655C18.7291 1.84493 19.9488 2.15738 21.0617 2.58424V9.42172C20.5129 9.04069 19.9107 8.70514 19.2551 8.41544C18.6148 8.12607 17.9516 7.88956 17.2656 7.70657C16.5795 7.50853 15.8935 7.36369 15.2074 7.27202C14.5366 7.1807 13.8963 7.13487 13.2865 7.13487C12.448 7.13487 11.6857 7.21884 10.9996 7.38644C10.3136 7.53899 9.73428 7.7601 9.26166 8.0498C8.78903 8.3395 8.42316 8.69009 8.164 9.10156C7.9048 9.49798 7.7752 9.94792 7.7752 10.4507C7.7752 10.9997 7.92006 11.4951 8.20973 11.9374C8.4994 12.3642 8.911 12.7757 9.44461 13.1721C9.97819 13.5535 10.6261 13.9345 11.3884 14.3156C12.1507 14.6815 13.012 15.0626 13.9725 15.459C15.2836 16.0079 16.4575 16.5947 17.4943 17.22C18.5462 17.8298 19.4457 18.5233 20.1927 19.3007C20.9397 20.0785 21.5114 20.9704 21.9078 21.9766C22.3042 22.9675 22.5024 24.126 22.5024 25.4524C22.5024 27.282 22.1518 28.8218 21.4505 30.0719C20.7644 31.3067 19.8268 32.3129 18.6377 33.0904C17.4485 33.8528 16.0612 34.4014 14.4756 34.737C12.9053 35.0725 11.2436 35.2401 9.49034 35.2401C7.69137 35.2401 5.97623 35.0876 4.34496 34.7828C2.72895 34.4777 1.32636 34.0204 0.137211 33.4105ZM38.3502 35.2401C34.4473 35.2401 31.3753 34.1502 29.1342 31.97C26.9084 29.7745 25.7954 26.8016 25.7954 23.0511C25.7954 19.1789 26.9541 16.1528 29.2714 13.9727C31.5887 11.7771 34.7216 10.6796 38.6704 10.6796C42.5579 10.6796 45.6069 11.7771 47.8178 13.9727C50.0283 16.1528 51.1336 19.0418 51.1336 22.6397C51.1336 26.5272 49.9902 29.5992 47.7034 31.8557C45.4316 34.1121 42.3141 35.2401 38.3502 35.2401ZM38.5332 16.2137C36.8254 16.2137 35.4994 16.8008 34.554 17.9747C33.6089 19.1485 33.1362 20.8101 33.1362 22.9598C33.1362 27.4572 34.9504 29.706 38.5787 29.706C42.0394 29.706 43.77 27.3963 43.77 22.7768C43.77 18.4015 42.0244 16.2137 38.5332 16.2137ZM73.5673 33.8224C71.9361 34.7674 69.5807 35.2401 66.501 35.2401C62.9031 35.2401 59.991 34.1502 57.7654 31.97C55.5394 29.7899 54.4264 26.9769 54.4264 23.5315C54.4264 19.5523 55.6157 16.4194 57.9939 14.1326C60.3874 11.8307 63.5815 10.6796 67.5758 10.6796C70.3354 10.6796 72.3325 11.0455 73.5673 11.7772V17.9061C72.0578 16.7777 70.3735 16.2137 68.5135 16.2137C66.4401 16.2137 64.7935 16.8235 63.5738 18.0432C62.3695 19.2475 61.7674 20.9168 61.7674 23.0511C61.7674 25.1246 62.3468 26.7561 63.5052 27.945C64.6641 29.1188 66.2571 29.706 68.2847 29.706C70.0838 29.706 71.8444 29.1419 73.5673 28.0136V33.8224ZM81.9827 7.54667C80.7633 7.54667 79.7648 7.18838 78.987 6.47181C78.2095 5.73986 77.8208 4.84801 77.8208 3.79625C77.8208 2.71371 78.2095 1.82955 78.987 1.14343C79.7648 0.457305 80.7633 0.114405 81.9827 0.114405C83.2178 0.114405 84.2164 0.457305 84.9784 1.14343C85.7562 1.82955 86.1449 2.71371 86.1449 3.79625C86.1449 4.89384 85.7562 5.7934 84.9784 6.49458C84.2164 7.19609 83.2178 7.54667 81.9827 7.54667ZM85.5501 34.6684H78.3239V11.2513H85.5501V34.6684ZM111.117 34.6684H104.279V31.3067H104.188C102.618 33.9291 100.293 35.2401 97.2132 35.2401C94.9414 35.2401 93.1503 34.5998 91.839 33.3192C90.5433 32.0233 89.8953 30.3004 89.8953 28.1511C89.8953 23.6078 92.586 20.9854 97.9679 20.2843L104.325 19.4382C104.325 16.8767 102.938 15.5961 100.163 15.5961C97.3731 15.5961 94.7206 16.4271 92.2049 18.0887V12.6462C93.2112 12.1277 94.5831 11.6704 96.3213 11.274C98.0746 10.8776 99.6676 10.6796 101.101 10.6796C107.778 10.6796 111.117 14.0108 111.117 20.673V34.6684ZM104.325 25.155V23.5774L100.072 24.126C97.7237 24.4311 96.5498 25.4905 96.5498 27.3047C96.5498 28.128 96.8318 28.8064 97.3962 29.34C97.9753 29.8585 98.753 30.1174 99.7285 30.1174C101.085 30.1174 102.191 29.6528 103.044 28.7228C103.898 27.7774 104.325 26.5881 104.325 25.155ZM124.061 34.6684H116.834V0H124.061V34.6684ZM173.296 34.6684H165.841L152.326 14.064C151.533 12.8597 150.984 11.9524 150.679 11.3426H150.588C150.71 12.5014 150.771 14.2697 150.771 16.6482V34.6684H143.796V1.87538H151.754L164.766 21.8391C165.361 22.7387 165.909 23.6305 166.413 24.5147H166.504C166.382 23.7526 166.321 22.251 166.321 20.0099V1.87538H173.296V34.6684ZM201.127 25.0178H185.851C186.095 28.4177 188.237 30.1174 192.277 30.1174C194.853 30.1174 197.117 29.5079 199.068 28.2882V33.5022C196.904 34.6607 194.091 35.2401 190.63 35.2401C186.849 35.2401 183.914 34.1957 181.826 32.1072C179.737 30.0033 178.693 27.0762 178.693 23.3258C178.693 19.4382 179.821 16.3585 182.077 14.0871C184.334 11.8153 187.108 10.6796 190.401 10.6796C193.817 10.6796 196.454 11.6935 198.314 13.7211C200.189 15.7487 201.127 18.5005 201.127 21.9766V25.0178ZM194.426 20.5816C194.426 17.2276 193.069 15.5506 190.356 15.5506C189.197 15.5506 188.191 16.0307 187.337 16.9911C186.499 17.9516 185.988 19.1485 185.805 20.5816H194.426ZM219.581 34.3941C218.514 34.9581 216.906 35.2401 214.756 35.2401C209.664 35.2401 207.118 32.595 207.118 27.3047V16.5796H203.322V11.2513H207.118V6.19752L214.322 4.13915V11.2513H219.581V16.5796H214.322V26.0472C214.322 28.4862 215.29 29.706 217.226 29.706C217.988 29.706 218.773 29.4848 219.581 29.0429V34.3941ZM257.588 11.2513L250.842 34.6684H243.25L239.797 20.9473C239.568 20.0327 239.439 19.0341 239.408 17.9516H239.271C239.164 19.1408 239.012 20.109 238.814 20.856L235.109 34.6684H227.608L220.999 11.2513H228.363L231.587 26.5272C231.74 27.2438 231.854 28.1129 231.93 29.1343H232.067C232.144 28.0671 232.281 27.1675 232.479 26.4359L236.504 11.2513H243.387L247.001 26.5272C247.092 26.9083 247.199 27.7928 247.321 29.1801H247.481C247.557 28.2959 247.679 27.4114 247.847 26.5272L250.888 11.2513H257.588ZM271.973 35.2401C268.07 35.2401 264.998 34.1502 262.757 31.97C260.531 29.7745 259.418 26.8016 259.418 23.0511C259.418 19.1789 260.576 16.1528 262.894 13.9727C265.211 11.7771 268.344 10.6796 272.293 10.6796C276.18 10.6796 279.23 11.7771 281.44 13.9727C283.651 16.1528 284.756 19.0418 284.756 22.6397C284.756 26.5272 283.613 29.5992 281.326 31.8557C279.054 34.1121 275.936 35.2401 271.973 35.2401ZM272.156 16.2137C270.448 16.2137 269.122 16.8008 268.176 17.9747C267.231 19.1485 266.759 20.8101 266.759 22.9598C266.759 27.4572 268.573 29.706 272.201 29.706C275.662 29.706 277.392 27.3963 277.392 22.7768C277.392 18.4015 275.647 16.2137 272.156 16.2137ZM304.72 17.7686C303.851 17.2962 302.837 17.0597 301.679 17.0597C300.108 17.0597 298.881 17.6391 297.997 18.7979C297.113 19.9413 296.67 21.504 296.67 23.4857V34.6684H289.444V11.2513H296.67V15.5961H296.762C297.905 12.4251 299.963 10.8398 302.936 10.8398C303.698 10.8398 304.293 10.9311 304.72 11.1141V17.7686ZM331.568 34.6684H322.9L315.422 23.0511H315.331V34.6684H308.105V0H315.331V22.068H315.422L322.397 11.2513H330.973L322.58 22.251L331.568 34.6684Z" fill="white"/>
<path d="M395 38C395 23.6406 383.359 12 369 12C354.641 12 343 23.6406 343 38C343 52.3594 354.641 64 369 64C383.359 64 395 52.3594 395 38Z" fill="white"/>
<path d="M350.477 49.342V44.7378C351.311 45.4381 352.218 45.9656 353.196 46.3205C354.174 46.6658 355.162 46.8384 356.16 46.8384C356.745 46.8384 357.253 46.7857 357.685 46.6802C358.126 46.5747 358.491 46.4308 358.779 46.2486C359.076 46.0567 359.297 45.8361 359.44 45.5867C359.584 45.3278 359.656 45.0496 359.656 44.7522C359.656 44.3494 359.541 43.9896 359.311 43.6731C359.081 43.3566 358.764 43.064 358.361 42.7954C357.968 42.5269 357.498 42.2679 356.951 42.0185C356.405 41.7691 355.815 41.5149 355.182 41.2559C353.57 40.5845 352.366 39.7644 351.57 38.7956C350.784 37.8268 350.39 36.6566 350.39 35.2849C350.39 34.2106 350.606 33.2898 351.038 32.5224C351.469 31.7454 352.055 31.1076 352.793 30.6088C353.541 30.11 354.405 29.7455 355.383 29.5153C356.361 29.2755 357.397 29.1556 358.491 29.1556C359.565 29.1556 360.515 29.2227 361.34 29.357C362.174 29.4817 362.941 29.6784 363.642 29.9469V34.249C363.296 34.0092 362.918 33.7981 362.505 33.6159C362.102 33.4336 361.685 33.285 361.253 33.1699C360.822 33.0452 360.39 32.954 359.958 32.8965C359.536 32.8389 359.134 32.8101 358.75 32.8101C358.222 32.8101 357.743 32.8629 357.311 32.9684C356.879 33.0643 356.515 33.2034 356.218 33.3857C355.92 33.568 355.69 33.7885 355.527 34.0476C355.364 34.2969 355.282 34.5799 355.282 34.8964C355.282 35.2417 355.373 35.5535 355.556 35.8316C355.738 36.1002 355.997 36.3592 356.333 36.6086C356.668 36.8484 357.076 37.0882 357.556 37.328C358.035 37.5582 358.577 37.798 359.181 38.0474C360.006 38.3927 360.745 38.762 361.397 39.1553C362.059 39.5389 362.625 39.9754 363.095 40.4646C363.565 40.9538 363.925 41.5149 364.174 42.148C364.423 42.7714 364.548 43.5005 364.548 44.335C364.548 45.486 364.328 46.4548 363.886 47.2414C363.455 48.0183 362.865 48.6513 362.117 49.1406C361.368 49.6202 360.496 49.9655 359.498 50.1765C358.51 50.3875 357.464 50.493 356.361 50.493C355.23 50.493 354.15 50.3971 353.124 50.2053C352.107 50.0135 351.225 49.7257 350.477 49.342ZM386.504 50.1333H381.814L373.31 37.1697C372.812 36.4119 372.466 35.8412 372.275 35.4575H372.217C372.294 36.1866 372.332 37.2992 372.332 38.7956V50.1333H367.944V29.5009H372.951L381.138 42.0616C381.512 42.6276 381.857 43.1887 382.173 43.745H382.231C382.154 43.2654 382.116 42.3207 382.116 40.9106V29.5009H386.504V50.1333Z" fill="#318CBF"/>
</svg>
